<svg width="29" height="27" viewBox="0 0 29 27" fill="none" xmlns="http://www.w3.org/2000/svg">
<path d="M27.5133 19.2267L18.98 3.86667C17.8333 1.8 16.2466 0.666668 14.5 0.666668C12.7533 0.666668 11.1666 1.8 10.02 3.86667L1.48664 19.2267C0.406637 21.1867 0.286637 23.0667 1.1533 24.5467C2.01997 26.0267 3.72664 26.84 5.96664 26.84H23.0333C25.2733 26.84 26.98 26.0267 27.8466 24.5467C28.7133 23.0667 28.5933 21.1733 27.5133 19.2267ZM13.5 10C13.5 9.45333 13.9533 9 14.5 9C15.0466 9 15.5 9.45333 15.5 10V16.6667C15.5 17.2133 15.0466 17.6667 14.5 17.6667C13.9533 17.6667 13.5 17.2133 13.5 16.6667V10ZM15.4466 21.6133C15.38 21.6667 15.3133 21.72 15.2466 21.7733C15.1666 21.8267 15.0866 21.8667 15.0066 21.8933C14.9266 21.9333 14.8466 21.96 14.7533 21.9733C14.6733 21.9867 14.58 22 14.5 22C14.42 22 14.3266 21.9867 14.2333 21.9733C14.1533 21.96 14.0733 21.9333 13.9933 21.8933C13.9133 21.8667 13.8333 21.8267 13.7533 21.7733C13.6866 21.72 13.62 21.6667 13.5533 21.6133C13.3133 21.36 13.1666 21.0133 13.1666 20.6667C13.1666 20.32 13.3133 19.9733 13.5533 19.72C13.62 19.6667 13.6866 19.6133 13.7533 19.56C13.8333 19.5067 13.9133 19.4667 13.9933 19.44C14.0733 19.4 14.1533 19.3733 14.2333 19.36C14.4066 19.32 14.5933 19.32 14.7533 19.36C14.8466 19.3733 14.9266 19.4 15.0066 19.44C15.0866 19.4667 15.1666 19.5067 15.2466 19.56C15.3133 19.6133 15.38 19.6667 15.4466 19.72C15.6866 19.9733 15.8333 20.32 15.8333 20.6667C15.8333 21.0133 15.6866 21.36 15.4466 21.6133Z" fill="#3E5EA9"/>
</svg>
